        <svg
          xmlns="http://www.w3.org/2000/svg"
          width="25"
          height="25"
          viewBox="0 0 25 25"
          fill="white"
        >
          <path d="M11.5944 0.62011C12.2322 0.238803 13.0288 0.242514 13.6629 0.629748L24.0423 6.96729C24.6371 7.33052 25 7.97725 25 8.67425V20.2632C25 22.8792 22.8792 25 20.2632 25C17.6471 25 15.5263 22.8792 15.5263 20.2632V19.1875C15.5263 18.0829 14.6309 17.1875 13.5263 17.1875H11.4737C10.3691 17.1875 9.47368 18.0829 9.47368 19.1875V20.2632C9.47368 22.8792 7.35293 25 4.73684 25C2.12076 25 0 22.8792 0 20.2632V8.68653C0 7.98289 0.36976 7.33101 0.973694 6.96994L11.5944 0.62011Z" />
        </svg>