        <svg
          xmlns="http://www.w3.org/2000/svg"
          width="21"
          height="25"
          viewBox="0 0 21 25"
          fill="white"
        >
          <path d="M17.1818 0H3.81818C2.80588 0.00103396 1.83535 0.37764 1.11954 1.04719C0.403732 1.71674 0.0011054 2.62454 0 3.57143V21.4286C0.0011054 22.3755 0.403732 23.2833 1.11954 23.9528C1.83535 24.6224 2.80588 24.999 3.81818 25H17.1818C18.1941 24.999 19.1647 24.6224 19.8805 23.9528C20.5963 23.2833 20.9989 22.3755 21 21.4286V3.57143C20.9989 2.62454 20.5963 1.71674 19.8805 1.04719C19.1647 0.37764 18.1941 0.00103396 17.1818 0ZM10.5 15.1786H5.72727C5.47411 15.1786 5.23132 15.0845 5.05231 14.9171C4.8733 14.7496 4.77273 14.5225 4.77273 14.2857C4.77273 14.0489 4.8733 13.8218 5.05231 13.6544C5.23132 13.4869 5.47411 13.3929 5.72727 13.3929H10.5C10.7532 13.3929 10.996 13.4869 11.175 13.6544C11.354 13.8218 11.4545 14.0489 11.4545 14.2857C11.4545 14.5225 11.354 14.7496 11.175 14.9171C10.996 15.0845 10.7532 15.1786 10.5 15.1786ZM15.2727 10.7143H5.72727C5.47411 10.7143 5.23132 10.6202 5.05231 10.4528C4.8733 10.2853 4.77273 10.0582 4.77273 9.82143C4.77273 9.58463 4.8733 9.35753 5.05231 9.19008C5.23132 9.02264 5.47411 8.92857 5.72727 8.92857H15.2727C15.5259 8.92857 15.7687 9.02264 15.9477 9.19008C16.1267 9.35753 16.2273 9.58463 16.2273 9.82143C16.2273 10.0582 16.1267 10.2853 15.9477 10.4528C15.7687 10.6202 15.5259 10.7143 15.2727 10.7143ZM15.2727 6.25H5.72727C5.47411 6.25 5.23132 6.15593 5.05231 5.98849C4.8733 5.82104 4.77273 5.59394 4.77273 5.35714C4.77273 5.12034 4.8733 4.89324 5.05231 4.7258C5.23132 4.55835 5.47411 4.46429 5.72727 4.46429H15.2727C15.5259 4.46429 15.7687 4.55835 15.9477 4.7258C16.1267 4.89324 16.2273 5.12034 16.2273 5.35714C16.2273 5.59394 16.1267 5.82104 15.9477 5.98849C15.7687 6.15593 15.5259 6.25 15.2727 6.25Z" />
        </svg>