<svg xmlns="http://www.w3.org/2000/svg" width="20" height="20" viewBox="0 0 20 20" fill="none">
    <path fill-rule="evenodd" clip-rule="evenodd" d="M13.5775 13.5774C13.9029 13.252 14.4305 13.252 14.756 13.5774L18.381 17.2024C18.7064 17.5278 18.7064 18.0555 18.381 18.3809C18.0555 18.7064 17.5279 18.7064 17.2025 18.3809L13.5775 14.7559C13.252 14.4305 13.252 13.9028 13.5775 13.5774Z" fill="#024751"/>
    <path fill-rule="evenodd" clip-rule="evenodd" d="M9.16663 3.33333C5.94496 3.33333 3.33329 5.945 3.33329 9.16666C3.33329 12.3883 5.94496 15 9.16663 15C12.3883 15 15 12.3883 15 9.16666C15 5.945 12.3883 3.33333 9.16663 3.33333ZM1.66663 9.16666C1.66663 5.02453 5.02449 1.66666 9.16663 1.66666C13.3088 1.66666 16.6666 5.02453 16.6666 9.16666C16.6666 13.3088 13.3088 16.6667 9.16663 16.6667C5.02449 16.6667 1.66663 13.3088 1.66663 9.16666Z" fill="#00D47E"/>
</svg>