<svg width="25" height="25" viewBox="0 0 25 25" fill="none" xmlns="http://www.w3.org/2000/svg">
<path d="M22.739 14.1149L22.7449 14.1177C22.8363 13.5904 22.8805 13.0518 22.8805 12.5189C22.8805 12.0417 22.8422 11.5618 22.7714 11.093C22.8422 11.559 22.8775 12.0306 22.8775 12.5021C22.8775 13.0435 22.8304 13.5848 22.739 14.1149ZM0.330082 9.32673C0.315345 9.31557 0.303555 9.3044 0.288818 9.29045C0.30945 9.30999 0.330082 9.32952 0.353661 9.34905L2.2842 10.9088V10.9061L0.330082 9.32673ZM16.1457 3.29961H16.1487L15.6918 0.961308C15.6859 0.933405 15.68 0.908292 15.6712 0.883179C15.6741 0.89713 15.68 0.913872 15.683 0.927824L16.1457 3.29961ZM17.7373 18.5488L18.6628 17.8289L21.398 18.7469C21.899 18.1079 22.3205 17.4215 22.6535 16.6932L20.4519 14.9102L20.6464 13.7913C20.7201 13.3699 20.7584 12.9374 20.7584 12.5049C20.7584 12.0724 20.7201 11.6399 20.6464 11.2186L20.4548 10.1052L22.6565 8.32221C22.3205 7.59672 21.902 6.90751 21.4009 6.26852L18.6657 7.18654L17.7403 6.46664C17.0358 5.91973 16.2489 5.49002 15.403 5.18866L14.28 4.78965L13.7525 2.08302C12.92 1.99373 12.0796 1.99373 11.2472 2.08302L10.7196 4.79523L9.60254 5.19424C8.76254 5.4956 7.98148 5.92531 7.28295 6.46943L6.35748 7.19212L3.60462 6.26573C3.10357 6.90472 2.68209 7.59114 2.34904 8.31942L4.57431 10.1192L4.38273 11.2353C4.30905 11.6511 4.27368 12.078 4.27368 12.5049C4.27368 12.929 4.31199 13.3588 4.38273 13.7745L4.57431 14.8907L2.34904 16.6904C2.68504 17.4159 3.10357 18.1051 3.60462 18.7441L6.35748 17.8177L7.28295 18.5404C7.98148 19.0845 8.76254 19.5142 9.60254 19.8156L10.7167 20.2202L11.2442 22.9324C12.0754 23.0217 12.9213 23.0217 13.7495 22.9324L14.2771 20.2258L15.4 19.8268C16.2489 19.5254 17.0329 19.0957 17.7373 18.5488V18.5488ZM12.5175 17.1452C11.6186 17.1452 10.7727 16.9276 10.0329 16.5453C8.41475 15.7138 7.31537 14.0926 7.31537 12.2259C7.31537 9.51368 9.63791 7.3149 12.5028 7.3149C14.4746 7.3149 16.187 8.35569 17.0653 9.88759C17.4691 10.5852 17.699 11.386 17.699 12.2398C17.699 14.9492 15.3794 17.1452 12.5175 17.1452V17.1452ZM3.51915 20.8982C3.35704 20.9513 3.18904 20.9624 3.02988 20.9317C3.19788 20.9652 3.37473 20.9596 3.54567 20.9038L5.94484 20.0946C5.94189 20.0918 5.936 20.089 5.93305 20.0863L3.51915 20.8982V20.8982ZM24.6696 9.32673L22.739 10.8893C22.739 10.8949 22.742 10.9033 22.742 10.9088L24.6696 9.34905C24.8788 9.17884 24.9967 8.93329 24.9997 8.67937C24.9908 8.92492 24.8729 9.1621 24.6696 9.32673Z" fill="white"/>
<path d="M14.9226 24.7879C15.1112 24.7556 15.285 24.6696 15.4208 24.5416C15.5567 24.4135 15.6481 24.2493 15.683 24.0708L16.1458 21.699C17.2123 21.3205 18.2052 20.7775 19.0843 20.0918L21.4805 20.8982C21.661 20.9586 21.8566 20.9656 22.0414 20.9183C22.2262 20.871 22.3914 20.7715 22.515 20.6331L22.5681 20.5745C23.5938 19.4277 24.3837 18.133 24.9172 16.7267L24.9437 16.6541C24.9938 16.5258 25.0085 16.3918 24.9938 16.2607C24.9673 16.0402 24.8553 15.831 24.6696 15.6775L22.7449 14.1177L22.739 14.1149C22.8304 13.5847 22.8776 13.0434 22.8776 12.5021C22.8776 12.0305 22.8422 11.5562 22.7715 11.093C22.7626 11.0316 22.7508 10.9702 22.742 10.9088C22.742 10.9032 22.739 10.8949 22.739 10.8893L24.6696 9.32669C24.8729 9.16206 24.9908 8.92488 24.9997 8.67933C25.0026 8.56772 24.9849 8.45332 24.9437 8.34449L24.9172 8.27195C24.3857 6.86569 23.5898 5.56207 22.5681 4.42407L22.515 4.36548C22.3911 4.2275 22.2259 4.12832 22.0412 4.081C21.8565 4.03368 21.661 4.04044 21.4805 4.1004L19.0843 4.9068C18.2001 4.22038 17.2157 3.67906 16.1487 3.29957H16.1458L15.683 0.927786C15.6801 0.913834 15.6771 0.897092 15.6712 0.883141C15.6287 0.714436 15.5353 0.561069 15.4024 0.441685C15.2695 0.322302 15.1028 0.242044 14.9226 0.21067L14.843 0.196719C13.3074 -0.0655729 11.6923 -0.0655729 10.1567 0.196719L10.0771 0.21067C9.88846 0.243029 9.71468 0.328961 9.57885 0.457051C9.44303 0.58514 9.35159 0.749322 9.31667 0.927786L8.85099 3.31073C7.79255 3.6903 6.80688 4.23133 5.93308 4.91238L3.51918 4.1004C3.3387 4.03996 3.14307 4.03296 2.95828 4.0803C2.77349 4.12765 2.6083 4.22712 2.48465 4.36548L2.43159 4.42407C1.41105 5.56288 0.615348 6.86628 0.0825326 8.27195L0.0560062 8.34449C-0.00541405 8.50666 -0.0161158 8.68216 0.0251843 8.84994C0.0664843 9.01772 0.158033 9.17066 0.288849 9.29042C0.303586 9.30158 0.315376 9.31553 0.330113 9.32669L2.28423 10.906V10.9088C2.19286 11.4334 2.14865 11.9663 2.14865 12.4993C2.14865 13.035 2.19286 13.5708 2.28423 14.0926L0.330113 15.6719C0.184499 15.7899 0.0802821 15.9471 0.0313189 16.1226C-0.0176444 16.298 -0.00903373 16.4834 0.0560062 16.6541L0.0825326 16.7267C0.616008 18.133 1.40591 19.4305 2.43159 20.5745L2.48465 20.6331C2.62907 20.7922 2.82065 20.8954 3.02991 20.9317C3.18907 20.9596 3.35707 20.9512 3.51918 20.8982L5.93308 20.0862C5.93603 20.089 5.94192 20.0918 5.94487 20.0946C6.82024 20.7726 7.79583 21.3112 8.85099 21.6879L9.31667 24.0708C9.35159 24.2493 9.44303 24.4135 9.57885 24.5416C9.71468 24.6696 9.88846 24.7556 10.0771 24.7879L10.1567 24.8019C10.9259 24.933 11.7129 25 12.4998 25H12.5087C13.2927 25 14.0796 24.933 14.843 24.8019L14.9226 24.7879V24.7879ZM13.7495 22.9324C12.9171 23.0217 12.0767 23.0217 11.2443 22.9324L10.7167 20.2202L9.60257 19.8156C8.76257 19.5142 7.98151 19.0845 7.28298 18.5404L6.35751 17.8177L3.60465 18.7441C3.1036 18.1051 2.68507 17.4159 2.34907 16.6904L4.57434 14.8906L4.38276 13.7745C4.31202 13.3587 4.27371 12.929 4.27371 12.5049C4.27371 12.078 4.30908 11.651 4.38276 11.2353L4.57434 10.1191L2.34907 8.31938C2.68212 7.5911 3.1036 6.90468 3.60465 6.2657L6.35751 7.19209L7.28298 6.46939C7.98151 5.92527 8.76257 5.49556 9.60257 5.19421L10.7196 4.79519L11.2472 2.08298C12.0754 1.99369 12.9213 1.99369 13.7525 2.08298L14.2801 4.78961L15.403 5.18863C16.2489 5.48998 17.0359 5.91969 17.7403 6.4666L18.6658 7.18651L21.4009 6.26849C21.902 6.90747 22.3205 7.59669 22.6565 8.32217L20.4548 10.1052L20.6464 11.2185C20.7201 11.6399 20.7584 12.0724 20.7584 12.5049C20.7584 12.9374 20.7201 13.3699 20.6464 13.7912L20.4519 14.9102L22.6536 16.6932C22.3198 17.4211 21.8985 18.1103 21.398 18.7469L18.6628 17.8288L17.7373 18.5487C17.0329 19.0957 16.2489 19.5254 15.4001 19.8267L14.2771 20.2257L13.7495 22.9324V22.9324Z" fill="white"/>
</svg>
