<svg
xmlns="http://www.w3.org/2000/svg"
width="25"
height="25"
viewBox="0 0 25 25"
fill="white"
>
<path d="M12.0283 0L12.1812 0.0122475C15.8537 0.306493 18.8786 3.01485 19.5755 6.63265V14.5408L20.8742 16.0677C22.5002 17.9793 21.1416 20.9184 18.6321 20.9184H4.71698C2.76454 20.9184 1.64393 18.6957 2.80494 17.126L4.71698 14.5408V6.63265L4.73244 6.55241C5.42057 2.97972 8.40247 0.301678 12.0283 0Z" />
<path d="M14.5805 21.4285C14.8358 21.4285 15.0182 21.6756 14.943 21.9196L14.7301 22.6103C14.6599 22.8383 14.527 23.0419 14.3466 23.198C13.151 24.2325 11.3773 24.2325 10.1817 23.198C10.0013 23.0419 9.86841 22.8383 9.79815 22.6103L9.58529 21.9196C9.51011 21.6756 9.69251 21.4285 9.9478 21.4285H14.5805Z" />
</svg>